<svg width="170" height="72" fill="none" xmlns="http://www.w3.org/2000/svg"><path d="M12.581 26V2.384h5.832c3.576 0 6.288 1.008 8.136 3.024 1.872 2.016 2.808 4.908 2.808 8.676s-.936 6.696-2.808 8.784C24.701 24.956 22.037 26 18.557 26h-5.976zm2.988-2.448h2.628c2.712 0 4.728-.828 6.048-2.484 1.344-1.656 2.016-3.984 2.016-6.984s-.672-5.292-2.016-6.876c-1.32-1.584-3.336-2.376-6.048-2.376H15.57v18.72zM42.411 26V10.916h-8.136V8.504h11.088V26h-2.952zm1.152-21.168c-.672 0-1.236-.204-1.692-.612-.456-.432-.684-.996-.684-1.692s.228-1.248.684-1.656c.456-.432 1.02-.648 1.692-.648.672 0 1.236.216 1.692.648.456.408.684.96.684 1.656s-.228 1.26-.684 1.692c-.456.408-1.02.612-1.692.612zM54.71 26V8.504h2.376l.252 2.304h.072c.456-.816.984-1.476 1.584-1.98.6-.504 1.404-.756 2.412-.756 1.704 0 2.808 1.008 3.312 3.024.504-.936 1.056-1.668 1.656-2.196.624-.552 1.44-.828 2.448-.828 1.224 0 2.172.468 2.844 1.404.696.912 1.044 2.244 1.044 3.996V26h-2.952V13.688c0-2.04-.624-3.06-1.872-3.06-.624 0-1.128.228-1.512.684-.384.432-.816 1.104-1.296 2.016V26h-2.736V13.688c0-1.008-.144-1.764-.432-2.268-.264-.528-.72-.792-1.368-.792-.624 0-1.152.228-1.584.684-.432.432-.864 1.104-1.296 2.016V26H54.71zm30.874 0V10.916h-8.136V8.504h11.088V26h-2.952zm1.152-21.168c-.672 0-1.236-.204-1.692-.612-.456-.432-.684-.996-.684-1.692s.228-1.248.684-1.656c.456-.432 1.02-.648 1.692-.648.672 0 1.236.216 1.692.648.456.408.684.96.684 1.656s-.228 1.26-.684 1.692c-.456.408-1.02.612-1.692.612zm23.242 21.6c-1.272 0-2.34-.168-3.204-.504-.864-.36-1.56-.852-2.088-1.476-.528-.648-.912-1.416-1.152-2.304-.216-.888-.324-1.872-.324-2.952v-8.28h-4.932V8.684l5.04-.18.396-5.616h2.448v5.616h8.604v2.412h-8.604v8.316c0 .792.072 1.488.216 2.088.144.576.384 1.068.72 1.476.336.408.792.72 1.368.936.576.192 1.284.288 2.124.288.84 0 1.596-.072 2.268-.216.672-.144 1.32-.336 1.944-.576l.648 2.16c-.792.288-1.632.528-2.52.72-.864.216-1.848.324-2.952.324zM122.635 26V8.504h2.448l.252 4.14h.108c.912-1.416 2.028-2.532 3.348-3.348 1.344-.816 2.832-1.224 4.464-1.224.648 0 1.248.06 1.8.18a6.358 6.358 0 011.656.54l-.684 2.556a14.85 14.85 0 00-1.584-.468c-.408-.096-.96-.144-1.656-.144-1.32 0-2.592.384-3.816 1.152-1.2.744-2.328 2.028-3.384 3.852V26h-2.952zm27.706 0V10.916h-8.136V8.504h11.088V26h-2.952zm1.152-21.168c-.672 0-1.236-.204-1.692-.612-.456-.432-.684-.996-.684-1.692s.228-1.248.684-1.656c.456-.432 1.02-.648 1.692-.648.672 0 1.236.216 1.692.648.456.408.684.96.684 1.656s-.228 1.26-.684 1.692c-.456.408-1.02.612-1.692.612zm-140.2 66.6c-1.465 0-2.82-.276-4.069-.828a9.655 9.655 0 01-3.276-2.376c-.912-1.056-1.632-2.34-2.16-3.852-.528-1.536-.792-3.264-.792-5.184 0-1.896.264-3.6.792-5.112s1.26-2.796 2.196-3.852a9.28 9.28 0 013.348-2.412c1.296-.576 2.712-.864 4.248-.864 1.416 0 2.664.288 3.744.864 1.104.576 2.004 1.248 2.7 2.016l-1.692 1.908a7.616 7.616 0 00-2.088-1.548c-.768-.408-1.656-.612-2.664-.612-1.128 0-2.16.228-3.096.684a6.38 6.38 0 00-2.34 1.908c-.648.816-1.152 1.812-1.512 2.988-.36 1.176-.54 2.496-.54 3.96 0 1.488.18 2.832.54 4.032.36 1.176.864 2.184 1.512 3.024a6.734 6.734 0 002.34 1.944c.936.456 1.968.684 3.096.684 1.08 0 2.04-.228 2.88-.684.864-.456 1.68-1.104 2.448-1.944l1.692 1.836c-.936 1.08-1.992 1.92-3.168 2.52-1.176.6-2.556.9-4.14.9zM25.497 71V53.504h2.448l.252 4.14h.108c.912-1.416 2.028-2.532 3.348-3.348 1.344-.816 2.832-1.224 4.464-1.224.648 0 1.248.06 1.8.18a6.358 6.358 0 011.656.54l-.684 2.556a14.85 14.85 0 00-1.584-.468c-.408-.096-.96-.144-1.656-.144-1.32 0-2.592.384-3.816 1.152-1.2.744-2.328 2.028-3.384 3.852V71h-2.952zm28.21.432c-1.32 0-2.556-.204-3.708-.612a8.807 8.807 0 01-2.988-1.8c-.84-.792-1.512-1.752-2.016-2.88-.48-1.152-.72-2.46-.72-3.924 0-1.416.24-2.688.72-3.816.504-1.128 1.164-2.088 1.98-2.88a8.665 8.665 0 012.844-1.8 9.029 9.029 0 013.384-.648c1.248 0 2.364.204 3.348.612 1.008.384 1.848.936 2.52 1.656a7.12 7.12 0 011.584 2.592c.36 1.008.54 2.124.54 3.348 0 .336-.012.66-.036.972a7 7 0 01-.108.828H47.264c.192 1.992.912 3.492 2.16 4.5 1.272.984 2.82 1.476 4.644 1.476 1.056 0 2.004-.144 2.844-.432.864-.312 1.692-.72 2.484-1.224l1.08 1.944c-.864.576-1.86 1.068-2.988 1.476-1.104.408-2.364.612-3.78.612zm-.432-16.02c-.72 0-1.416.12-2.088.36a5.716 5.716 0 00-1.764 1.044 5.4 5.4 0 00-1.332 1.656c-.36.672-.612 1.44-.756 2.304h11.16c-.12-1.8-.648-3.144-1.584-4.032-.912-.888-2.124-1.332-3.636-1.332zm18.994 16.02a7.24 7.24 0 01-2.304-.36 6.154 6.154 0 01-1.908-.936 4.905 4.905 0 01-1.26-1.548c-.312-.624-.468-1.332-.468-2.124 0-.984.228-1.836.684-2.556.48-.744 1.224-1.38 2.232-1.908 1.032-.528 2.352-.96 3.96-1.296 1.608-.336 3.54-.6 5.796-.792a6.4 6.4 0 00-.288-1.692 3.54 3.54 0 00-.792-1.368c-.36-.408-.84-.732-1.44-.972-.576-.24-1.284-.36-2.124-.36a8.269 8.269 0 00-3.312.684c-1.056.432-1.992.9-2.808 1.404l-1.152-2.016c.432-.288.936-.576 1.512-.864.6-.312 1.224-.588 1.872-.828.672-.24 1.38-.432 2.124-.576.744-.168 1.5-.252 2.268-.252 2.4 0 4.176.66 5.328 1.98 1.176 1.296 1.764 3.036 1.764 5.22V71h-2.412l-.252-2.376h-.108a16.52 16.52 0 01-3.276 1.98 8.467 8.467 0 01-3.636.828zm.792-2.376a7.124 7.124 0 002.952-.648c.984-.456 1.98-1.104 2.988-1.944v-4.608c-1.872.144-3.444.348-4.716.612-1.248.264-2.256.588-3.024.972-.744.36-1.272.78-1.584 1.26a2.677 2.677 0 00-.468 1.548c0 .504.108.936.324 1.296.216.336.492.624.828.864.36.216.768.384 1.224.504.48.096.972.144 1.476.144zm26.122 2.376c-1.272 0-2.34-.168-3.204-.504-.864-.36-1.56-.852-2.088-1.476-.528-.648-.912-1.416-1.152-2.304-.216-.888-.324-1.872-.324-2.952v-8.28h-4.932v-2.232l5.04-.18.396-5.616h2.448v5.616h8.604v2.412h-8.604v8.316c0 .792.072 1.488.216 2.088.144.576.384 1.068.72 1.476.336.408.792.72 1.368.936.576.192 1.284.288 2.124.288.84 0 1.596-.072 2.268-.216.672-.144 1.32-.336 1.944-.576l.648 2.16c-.792.288-1.632.528-2.52.72-.864.216-1.848.324-2.952.324zM117.962 71V55.916h-8.136v-2.412h11.088V71h-2.952zm1.152-21.168c-.672 0-1.236-.204-1.692-.612-.456-.432-.684-.996-.684-1.692s.228-1.248.684-1.656c.456-.432 1.02-.648 1.692-.648.672 0 1.236.216 1.692.648.456.408.684.96.684 1.656s-.228 1.26-.684 1.692c-.456.408-1.02.612-1.692.612zM137.388 71l-7.38-17.496h2.988l4.032 9.936c.36.888.696 1.764 1.008 2.628.336.84.66 1.68.972 2.52h.144c.312-.84.612-1.68.9-2.52.312-.864.648-1.74 1.008-2.628l4.032-9.936h2.844L140.7 71h-3.312zm24.25.432c-1.32 0-2.556-.204-3.708-.612a8.807 8.807 0 01-2.988-1.8c-.84-.792-1.512-1.752-2.016-2.88-.48-1.152-.72-2.46-.72-3.924 0-1.416.24-2.688.72-3.816.504-1.128 1.164-2.088 1.98-2.88a8.665 8.665 0 012.844-1.8 9.029 9.029 0 013.384-.648c1.248 0 2.364.204 3.348.612 1.008.384 1.848.936 2.52 1.656a7.12 7.12 0 011.584 2.592c.36 1.008.54 2.124.54 3.348 0 .336-.012.66-.036.972a7 7 0 01-.108.828h-13.788c.192 1.992.912 3.492 2.16 4.5 1.272.984 2.82 1.476 4.644 1.476 1.056 0 2.004-.144 2.844-.432.864-.312 1.692-.72 2.484-1.224l1.08 1.944c-.864.576-1.86 1.068-2.988 1.476-1.104.408-2.364.612-3.78.612zm-.432-16.02c-.72 0-1.416.12-2.088.36a5.716 5.716 0 00-1.764 1.044 5.4 5.4 0 00-1.332 1.656c-.36.672-.612 1.44-.756 2.304h11.16c-.12-1.8-.648-3.144-1.584-4.032-.912-.888-2.124-1.332-3.636-1.332z" fill="#2C2C2C"/></svg>