<svg width="19" height="13" viewBox="0 0 19 13" fill="none" xmlns="http://www.w3.org/2000/svg">
<path d="M7.08103 11.136L0.367031 6.582V5.466L7.08103 0.911999V2.334L1.66303 5.988V6.06L7.08103 9.714V11.136ZM14.166 12.216C13.17 12.216 12.336 12.054 11.664 11.73C10.992 11.394 10.446 11.016 10.026 10.596L10.782 9.624C11.166 9.984 11.622 10.302 12.15 10.578C12.69 10.854 13.332 10.992 14.076 10.992C14.472 10.992 14.838 10.944 15.174 10.848C15.51 10.74 15.798 10.596 16.038 10.416C16.29 10.236 16.482 10.02 16.614 9.768C16.758 9.504 16.83 9.21 16.83 8.886C16.83 8.55 16.752 8.244 16.596 7.968C16.452 7.68 16.212 7.434 15.876 7.23C15.54 7.026 15.108 6.87 14.58 6.762C14.052 6.654 13.41 6.6 12.654 6.6V5.466C13.338 5.466 13.914 5.412 14.382 5.304C14.862 5.196 15.252 5.046 15.552 4.854C15.852 4.662 16.068 4.434 16.2 4.17C16.344 3.906 16.416 3.624 16.416 3.324C16.416 2.76 16.2 2.316 15.768 1.992C15.348 1.668 14.784 1.506 14.076 1.506C13.536 1.506 13.026 1.614 12.546 1.83C12.066 2.046 11.634 2.328 11.25 2.676L10.458 1.74C10.938 1.32 11.484 0.978 12.096 0.713999C12.708 0.437999 13.386 0.299999 14.13 0.299999C14.67 0.299999 15.168 0.365999 15.624 0.497999C16.092 0.629999 16.494 0.821999 16.83 1.074C17.178 1.314 17.448 1.614 17.64 1.974C17.832 2.334 17.928 2.748 17.928 3.216C17.928 3.912 17.7 4.482 17.244 4.926C16.788 5.37 16.2 5.712 15.48 5.952V6.024C15.864 6.108 16.224 6.234 16.56 6.402C16.908 6.558 17.214 6.762 17.478 7.014C17.742 7.254 17.946 7.536 18.09 7.86C18.246 8.184 18.324 8.544 18.324 8.94C18.324 9.444 18.216 9.9 18 10.308C17.784 10.716 17.484 11.064 17.1 11.352C16.728 11.628 16.29 11.844 15.786 12C15.282 12.144 14.742 12.216 14.166 12.216Z" fill="#2C2C2C"/>
</svg>
